<?xml version="1.0" standalone="no"?>
<!DOCTYPE svg PUBLIC "-//W3C//DTD SVG 20010904//EN"
 "http://www.w3.org/TR/2001/REC-SVG-20010904/DTD/svg10.dtd">
<svg version="1.0" xmlns="http://www.w3.org/2000/svg"
 width="200.000000pt" height="200.000000pt" viewBox="0 0 200.000000 200.000000"
 preserveAspectRatio="xMidYMid meet">
<metadata>
Created by potrace 1.10, written by Peter Selinger 2001-2011
</metadata>
<g transform="translate(0.000000,200.000000) scale(0.100000,-0.100000)"
fill="#000000" stroke="none">
<path d="M858 1889 c-184 -28 -405 -162 -544 -328 -69 -82 -150 -230 -182
-331 -59 -184 -57 -424 3 -606 61 -180 238 -424 308 -424 15 0 53 25 103 70
53 47 110 85 174 116 157 77 160 87 63 170 -92 77 -148 141 -198 230 -124 217
-121 519 7 731 54 90 152 188 259 259 55 36 99 70 99 77 -1 35 -29 46 -92 36z
m82 -23 c0 -3 -25 -16 -56 -30 -368 -169 -535 -636 -362 -1015 53 -116 165
-251 260 -312 l49 -31 -79 -32 c-64 -26 -190 -100 -212 -125 -3 -3 -27 -26
-53 -50 l-47 -45 -55 60 c-94 99 -163 215 -210 349 -62 180 -62 415 2 603 83
249 281 462 523 562 95 40 240 79 240 66z"/>
<path d="M1053 1874 c-10 -26 8 -45 83 -89 82 -48 238 -200 274 -268 13 -25
22 -49 19 -52 -4 -3 -39 10 -80 30 -180 85 -395 85 -363 0 3 -8 29 -31 57 -51
182 -129 316 -298 361 -453 20 -69 21 -171 1 -217 -23 -55 -88 -133 -173 -204
-42 -36 -78 -74 -80 -83 -5 -27 17 -48 88 -80 84 -38 150 -81 232 -150 36 -31
76 -57 88 -57 55 0 217 204 278 352 99 238 103 503 10 737 -111 282 -338 492
-625 581 -82 25 -161 27 -170 4z m82 -19 c89 -21 207 -68 280 -112 79 -48 187
-136 219 -178 14 -18 32 -39 39 -47 43 -43 130 -205 160 -298 43 -131 56 -351
28 -470 -43 -184 -121 -332 -244 -465 l-56 -60 -53 51 c-73 71 -167 132 -260
170 l-79 32 51 32 c67 43 182 168 214 232 49 99 31 250 -47 388 -80 142 -214
282 -339 354 -27 16 -48 30 -48 33 0 16 200 -7 266 -30 78 -26 200 -103 240
-149 28 -34 30 -22 8 41 -72 208 -217 374 -398 457 -31 14 -56 27 -56 30 0 6
2 6 75 -11z"/>
</g>
</svg>
